<?xml version="1.0" encoding="utf-8"?>
<!-- Generator: Adobe Illustrator 28.0.0, SVG Export Plug-In . SVG Version: 6.00 Build 0)  -->
<svg version="1.1" id="Layer_1" xmlns="http://www.w3.org/2000/svg" xmlns:xlink="http://www.w3.org/1999/xlink" x="0px" y="0px"
	 viewBox="0 0 81.65 57.74" style="enable-background:new 0 0 81.65 57.74;" xml:space="preserve">
<style type="text/css">
	.st0{fill:url(#SVGID_1_);}
	.st1{fill:#488BCA;}
	.st2{fill:url(#SVGID_00000167391768566287555440000010264426848763654804_);}
	.st3{fill:#5185DD;}
	.st4{fill:url(#SVGID_00000088123183737697770500000006656937734258250425_);}
	.st5{fill:#FFFFFF;}
	.st6{fill:#475BD3;}
	.st7{fill:url(#SVGID_00000109715132569788905450000002282637118504925581_);}
	.st8{fill:#647BCA;}
</style>
<linearGradient id="SVGID_1_" gradientUnits="userSpaceOnUse" x1="17.1748" y1="5.7625" x2="71.3496" y2="58.3523">
	<stop  offset="0" style="stop-color:#4C77BA"/>
	<stop  offset="0.2203" style="stop-color:#6BE6DF"/>
	<stop  offset="0.3773" style="stop-color:#6BE7DB"/>
	<stop  offset="0.5182" style="stop-color:#69EAD1"/>
	<stop  offset="0.653" style="stop-color:#67EEBE"/>
	<stop  offset="0.784" style="stop-color:#65F4A4"/>
	<stop  offset="0.9111" style="stop-color:#61FC84"/>
	<stop  offset="0.9498" style="stop-color:#60FF78"/>
</linearGradient>
<path class="st0" d="M70.25,49.1l-0.02-0.02l-0.17-0.15l-0.01-0.01l-10.69-9.09l10.4-8.49l0.61-0.5l0,0
	c0.78-0.77,1.26-1.83,1.26-3.01c0-2.34-1.9-4.23-4.23-4.23c-0.85,0-1.65,0.25-2.31,0.69l0,0l-0.7,0.57l0,0L52.83,34.3l-8.43-7.16
	l6.79-5.37l0.65-0.52l0.01,0c2.44-2.08,3.98-5.18,3.98-8.64c0-6.08-4.77-11.04-10.77-11.34H20.85c-2.18,0.18-3.9,2.01-3.9,4.23
	c0,2.23,1.72,4.06,3.91,4.23h22.6c0.05,0,0.1,0,0.15,0s0.1,0,0.15,0c1.56,0.08,2.79,1.36,2.79,2.94c0,0.86-0.37,1.63-0.96,2.17
	c-0.11,0.1-0.23,0.19-0.35,0.27l-7.63,5.97c-1.28-1.36-2.26-2.43-3.56-3.67c-1.66-1.59-3.84-2.19-6.2-2.19
	c-5.6,0-10.16,4.43-10.39,9.97v14.81c0.14,2.22,1.99,3.97,4.24,3.97c0.82,0,1.58-0.23,2.23-0.63l0,0l0.77-0.61l13.05-10.34
	l8.49,7.27l-11.08,9.05l-0.62,0.51l0,0c-0.78,0.77-1.26,1.83-1.26,3.01c0,2.34,1.9,4.23,4.23,4.23c0.86,0,1.66-0.26,2.33-0.7l0,0
	l0.66-0.54l0,0l12.24-9.99l11.56,9.9l0,0l0.69,0.59c0.68,0.47,1.5,0.74,2.39,0.74c2.34,0,4.23-1.9,4.23-4.23
	C71.63,51,71.1,49.88,70.25,49.1z M26.27,29.97v-4.7c0-0.04-0.01-0.08-0.01-0.12c0-0.04,0-0.08,0.01-0.12
	c0.06-0.68,0.63-1.21,1.33-1.21c0.27,0,0.53,0.08,0.74,0.23l0,0c0.09,0.06,0.17,0.13,0.25,0.22l2.36,2.05L26.27,29.97z"/>
<path class="st1" d="M16.95,17.67c-1.99,0-3.6-1.61-3.6-3.6c0-1.99,1.61-3.6,3.6-3.6s3.6,1.61,3.6,3.6
	C20.55,16.06,18.94,17.67,16.95,17.67z"/>
<linearGradient id="SVGID_00000028287544091742842700000002644913193927040703_" gradientUnits="userSpaceOnUse" x1="100.7043" y1="-53.767" x2="154.879" y2="-1.1771">
	<stop  offset="0" style="stop-color:#4C77BA"/>
	<stop  offset="0.2203" style="stop-color:#6BE6DF"/>
	<stop  offset="0.3773" style="stop-color:#6BE7DB"/>
	<stop  offset="0.5182" style="stop-color:#69EAD1"/>
	<stop  offset="0.653" style="stop-color:#67EEBE"/>
	<stop  offset="0.784" style="stop-color:#65F4A4"/>
	<stop  offset="0.9111" style="stop-color:#61FC84"/>
	<stop  offset="0.9498" style="stop-color:#60FF78"/>
</linearGradient>
<path style="fill:url(#SVGID_00000028287544091742842700000002644913193927040703_);" d="M153.78-10.42l-0.02-0.02l-0.17-0.15
	l-0.01-0.01l-10.69-9.09l10.4-8.49l0.61-0.5l0,0c0.78-0.77,1.26-1.83,1.26-3.01c0-2.34-1.9-4.23-4.23-4.23
	c-0.85,0-1.65,0.25-2.31,0.69l0,0l-0.7,0.57l0,0l-11.56,9.44l-8.43-7.16l6.79-5.37l0.65-0.52l0.01,0c2.44-2.08,3.98-5.18,3.98-8.64
	c0-6.08-4.77-11.04-10.77-11.34h-24.21c-2.18,0.18-3.9,2.01-3.9,4.23c0,2.23,1.72,4.06,3.91,4.23h22.6c0.05,0,0.1,0,0.15,0
	s0.1,0,0.15,0c1.56,0.08,2.79,1.36,2.79,2.94c0,0.86-0.37,1.63-0.96,2.17c-0.11,0.1-0.23,0.19-0.35,0.27l-7.63,5.97
	c-1.28-1.36-2.26-2.43-3.56-3.67c-1.66-1.59-3.84-2.19-6.2-2.19c-5.6,0-10.16,4.43-10.39,9.97v14.81c0.14,2.22,1.99,3.97,4.24,3.97
	c0.82,0,1.58-0.23,2.23-0.63l0,0l0.77-0.61l13.05-10.34l8.49,7.27l-11.08,9.05l-0.62,0.51l0,0c-0.78,0.77-1.26,1.83-1.26,3.01
	c0,2.34,1.9,4.23,4.23,4.23c0.86,0,1.66-0.26,2.33-0.7l0,0l0.66-0.54l0,0l12.24-9.99l11.56,9.9l0,0l0.69,0.59
	c0.68,0.47,1.5,0.74,2.39,0.74c2.34,0,4.23-1.9,4.23-4.23C155.16-8.53,154.63-9.65,153.78-10.42z M109.8-29.56v-4.7
	c0-0.04-0.01-0.08-0.01-0.12c0-0.04,0-0.08,0.01-0.12c0.06-0.68,0.63-1.21,1.33-1.21c0.27,0,0.53,0.08,0.74,0.23l0,0
	c0.09,0.06,0.17,0.13,0.25,0.22l2.36,2.05L109.8-29.56z"/>
<g>
	<path class="st3" d="M102.2-42.37c-1.74,0.93-3.91,0.26-4.83-1.48c-0.93-1.74-0.26-3.91,1.48-4.83c1.74-0.93,3.91-0.26,4.83,1.48
		C104.6-45.46,103.94-43.3,102.2-42.37z"/>
	
		<linearGradient id="SVGID_00000057119511102883687870000008336123211746232765_" gradientUnits="userSpaceOnUse" x1="-1329.2875" y1="1466.4421" x2="-1322.1846" y2="1463.9368" gradientTransform="matrix(0.469 0.8833 -0.8833 0.469 2016.5874 438.6161)">
		<stop  offset="0" style="stop-color:#5185DD"/>
		<stop  offset="0.2415" style="stop-color:#5593DC"/>
		<stop  offset="0.6988" style="stop-color:#5FB9DA"/>
		<stop  offset="0.95" style="stop-color:#65D0D8"/>
		<stop  offset="0.9602" style="stop-color:#68D1D9"/>
		<stop  offset="0.9683" style="stop-color:#72D4DB"/>
		<stop  offset="0.9756" style="stop-color:#83D9DF"/>
		<stop  offset="0.9824" style="stop-color:#9AE0E5"/>
		<stop  offset="0.9889" style="stop-color:#B8E9ED"/>
		<stop  offset="0.9952" style="stop-color:#DDF5F6"/>
		<stop  offset="1" style="stop-color:#FFFFFF"/>
	</linearGradient>
	<path style="fill:url(#SVGID_00000057119511102883687870000008336123211746232765_);" d="M102.12-42.23
		c-1.74,0.93-3.91,0.26-4.83-1.48c-0.93-1.74-0.26-3.91,1.48-4.83c1.74-0.93,3.91-0.26,4.83,1.48
		C104.53-45.32,103.86-43.16,102.12-42.23z"/>
	<path class="st5" d="M97.2-43.89c0.02,0.03,0.03,0.06,0.04,0.09c0.02,0.03,0.03,0.06,0.05,0.09l6.31-3.35
		c-0.02-0.03-0.03-0.06-0.05-0.09c-0.02-0.03-0.03-0.06-0.05-0.09L97.2-43.89z"/>
	<path class="st6" d="M97.24-43.8c0.02,0.03,0.03,0.06,0.05,0.09c0.02,0.03,0.03,0.06,0.05,0.09l6.31-3.35
		c-0.01-0.03-0.03-0.06-0.04-0.09c-0.02-0.03-0.03-0.06-0.05-0.09L97.24-43.8z"/>
	
		<linearGradient id="SVGID_00000175283902786857501370000008974165577756416402_" gradientUnits="userSpaceOnUse" x1="-1325.3005" y1="1468.3447" x2="-1326.609" y2="1462.1887" gradientTransform="matrix(0.469 0.8833 -0.8833 0.469 2016.5874 438.6161)">
		<stop  offset="0" style="stop-color:#FFFFFF"/>
		<stop  offset="1" style="stop-color:#2647F0"/>
	</linearGradient>
	<path style="fill:url(#SVGID_00000175283902786857501370000008974165577756416402_);" d="M101.92-42.61
		c-1.54,0.81-3.44,0.23-4.26-1.3c-0.82-1.53-0.23-3.44,1.3-4.25c1.54-0.82,3.44-0.23,4.26,1.3
		C104.04-45.33,103.46-43.43,101.92-42.61z"/>
	<path class="st5" d="M97.57-44.09c0.01,0.03,0.03,0.06,0.05,0.09c0.02,0.03,0.03,0.06,0.05,0.09l5.55-2.95
		c-0.01-0.03-0.03-0.06-0.04-0.09c-0.02-0.03-0.03-0.06-0.05-0.09L97.57-44.09z"/>
	<path class="st8" d="M97.62-44c0.02,0.03,0.03,0.06,0.05,0.09c0.02,0.03,0.03,0.06,0.05,0.09l5.55-2.95
		c-0.02-0.03-0.03-0.06-0.04-0.09c-0.02-0.03-0.03-0.06-0.05-0.09L97.62-44z"/>
</g>
</svg>
