<svg width="27" height="26" viewBox="0 0 27 26" fill="none" xmlns="http://www.w3.org/2000/svg">
<path d="M3.24189 6.59024C3.27563 5.64305 2.52336 4.93433 1.66651 4.91753C0.745569 4.90074 0.00679185 5.60274 4.50355e-05 6.51635C-0.00670178 7.45683 0.745568 8.13868 1.61253 8.14204C2.48625 8.14876 3.21153 7.47698 3.24189 6.59024Z" fill="#101828"/>
<path d="M25.9689 22.4945C25.5877 22.1351 25.1762 21.8059 24.7748 21.4667C23.9651 20.7781 23.1521 20.0929 22.3392 19.4043C21.8736 19.0113 21.4115 18.6184 20.9291 18.2119C21.0471 18.1179 21.1551 18.0306 21.2597 17.9432C22.7844 16.7038 24.3092 15.4644 25.834 14.225C26.2928 13.8521 26.5154 13.3584 26.5188 12.7807C26.5222 12.1861 26.2827 11.689 25.8239 11.2994C25.1728 10.7385 24.1203 10.7116 23.4524 11.2457C22.69 11.8603 21.931 12.4817 21.1686 13.0997C20.1296 13.9428 19.0906 14.7859 18.0549 15.6323C17.9773 15.6961 17.9301 15.6861 17.866 15.629C17.7311 15.5148 17.5961 15.4006 17.4612 15.2864C16.6448 14.5978 15.8318 13.9059 15.0155 13.2173C14.7186 12.9654 14.4251 12.7168 14.1215 12.4616C14.1586 12.428 14.189 12.3977 14.2194 12.3742C15.2381 11.5715 16.2603 10.7653 17.2824 9.96593C17.866 9.50913 18.3484 8.97507 18.6992 8.32345C19.2019 7.38968 19.4009 6.3921 19.293 5.33742C19.1715 4.17861 18.6959 3.17767 17.9031 2.33124C17.5017 1.90131 17.0294 1.56206 16.5032 1.29335C15.7947 0.930595 15.0425 0.732422 14.2463 0.732422C10.7043 0.732422 7.16219 0.735781 3.62011 0.742498C2.99603 0.742498 2.46303 0.97426 2.06834 1.46801C1.58257 2.06925 1.50498 2.88545 1.88955 3.56394C2.264 4.229 2.85434 4.55481 3.61673 4.55481C7.01376 4.55816 10.4074 4.55816 13.8044 4.56152C14.3509 4.56152 14.8603 4.93436 15.0425 5.4617C15.2246 5.9924 15.0425 6.60371 14.6073 6.93624C14.1519 7.28556 13.6999 7.6416 13.2444 7.99092C12.536 8.54177 11.8276 9.09263 11.1226 9.64348C11.0686 9.68715 11.0349 9.71402 10.9708 9.64684C10.4546 9.11278 9.9385 8.57872 9.419 8.05138C9.16599 7.79275 8.86913 7.59457 8.53854 7.44343C7.70531 7.06723 6.83159 6.96647 5.93089 7.10754C4.22057 7.37625 3.00615 8.30665 2.27074 9.86181C2.02786 10.3791 1.8828 10.9266 1.87943 11.4976C1.86931 13.748 1.87268 15.9984 1.87268 18.2522C1.87268 18.2959 1.86931 18.3396 1.87605 18.3832C2.00424 19.5555 3.23554 20.3415 4.36226 19.9854C4.69285 19.8813 4.94923 19.6697 5.21236 19.4614C6.83159 18.1851 8.4542 16.9087 10.0734 15.6323C10.4175 15.3636 10.7582 15.0916 11.1057 14.8195C12.3977 15.9212 13.683 17.0162 14.9784 18.1212C14.6984 18.3496 14.4353 18.5613 14.1721 18.7762C12.8632 19.8376 11.5544 20.9024 10.2455 21.9638C10.0228 22.1452 9.7867 22.3131 9.58767 22.518C9.20985 22.9076 9.04455 23.3879 9.07828 23.9321C9.10864 24.4594 9.32792 24.9028 9.7226 25.2487C10.1173 25.5947 10.5795 25.7526 11.1057 25.7223C11.4768 25.7022 11.8242 25.5947 12.1144 25.3629C12.9105 24.7248 13.6965 24.0765 14.4892 23.435C15.6025 22.5281 16.7191 21.6245 17.8289 20.7176C17.9065 20.6538 17.9571 20.6538 18.0313 20.7176C18.3349 20.9796 18.6419 21.2383 18.9489 21.5003C19.7045 22.1452 20.4568 22.7901 21.2124 23.435C21.9006 24.0228 22.5955 24.6005 23.277 25.1984C23.7762 25.6384 24.3396 25.813 24.994 25.6854C25.8205 25.5208 26.4648 24.8323 26.5222 23.9153C26.5525 23.3711 26.3738 22.874 25.9689 22.4945ZM5.89716 13.7144C5.88704 13.7077 5.87354 13.701 5.86342 13.6943V13.1535C5.86342 12.6161 5.86342 12.0787 5.86342 11.5412C5.86342 11.286 5.99161 11.1046 6.21763 10.9971C6.44702 10.8896 6.66967 10.9266 6.86195 11.0878C7.20604 11.3767 7.54338 11.6756 7.8841 11.9678C7.9212 11.998 7.96506 12.0249 8.02241 12.0652C7.29375 12.6295 6.59545 13.1703 5.89716 13.7144Z" fill="#101828"/>
</svg>
